<?xml version="1.0" standalone="no"?>
<!DOCTYPE svg PUBLIC "-//W3C//DTD SVG 20010904//EN"
 "http://www.w3.org/TR/2001/REC-SVG-20010904/DTD/svg10.dtd">
<svg version="1.0" xmlns="http://www.w3.org/2000/svg"
 width="105.000000pt" height="110.000000pt" viewBox="0 0 105.000000 110.000000"
 preserveAspectRatio="xMidYMid meet">

<g transform="translate(0.000000,110.000000) scale(0.100000,-0.100000)"
fill="#ffffff" stroke="none">
<path d="M725 856 c-13 -9 -38 -12 -87 -8 l-68 5 0 -75 0 -76 54 -4 c46 -4 58
-9 81 -36 35 -42 84 -44 114 -6 17 21 21 41 21 96 0 60 -3 72 -25 93 -27 28
-62 32 -90 11z"/>
<path d="M404 816 c-88 -41 -154 -143 -154 -238 l0 -38 75 0 75 0 0 41 c0 33
6 47 33 73 18 17 40 36 49 41 14 8 16 21 11 78 -7 78 -11 80 -89 43z"/>
<path d="M253 433 c16 -94 100 -187 193 -213 26 -8 88 -11 161 -9 103 4 123 7
156 28 79 48 97 95 57 139 -26 28 -75 29 -115 2 -25 -16 -47 -20 -123 -20
-110 0 -143 14 -170 72 l-17 37 -74 1 -74 0 6 -37z"/>
</g>
</svg>
